<svg width="43" height="18" viewBox="0 0 43 18" fill="none" xmlns="http://www.w3.org/2000/svg">
<path d="M14.6179 8.44714L14.5717 8.4098L14.6121 8.36648C15.5076 7.40041 16.0462 6.21909 16.0462 5.04053C16.0462 4.72619 16.0321 4.41093 15.9738 4.11226C15.5158 1.77082 13.3378 0.00460912 10.7369 0H0V4.10488H9.94249C10.8356 4.10488 11.5595 4.79118 11.5595 5.63788C11.5595 6.48457 10.8356 7.17087 9.94249 7.17087H4.52179V5.02717L0 7.17087V17.8511H11.0699C13.6388 17.8511 15.8105 16.2149 16.4901 13.9845C16.6335 13.5135 16.7123 13.0171 16.7123 12.5027C16.7123 10.978 15.9091 9.49986 14.6184 8.44714H14.6179ZM10.1194 13.7771H4.52179V10.4599H10.1194C11.0855 10.4599 11.8691 11.2025 11.8691 12.1188C11.8691 13.0351 11.0859 13.7776 10.1194 13.7776V13.7771ZM38.9104 4.87507H43L38.3708 17.8507H33.8927L29.2105 4.87507H33.5072L36.2088 13.4056L38.9104 4.87507ZM28.4881 17.865L28.4152 17.8765C27.8959 17.9585 27.1618 18 26.2338 18C23.1996 18 21.8296 17.0413 21.8296 14.7948V7.57232H19.6258V4.87507H21.8296V3.0222L25.8993 1.09282V4.87507H28.4886V7.57232H25.8993V13.6172C25.8993 14.6893 26.1278 14.9059 27.2586 14.9059C27.7199 14.9059 28.0851 14.875 28.3427 14.8137L28.4886 14.7791V17.8645L28.4881 17.865Z" fill="white"/>
</svg>
