<svg width="42" height="18" viewBox="0 0 42 18" fill="none" xmlns="http://www.w3.org/2000/svg">
<path d="M14.2779 8.44714L14.2328 8.4098L14.2723 8.36648C15.1469 7.40041 15.6731 6.21909 15.6731 5.04053C15.6731 4.72619 15.6593 4.41093 15.6023 4.11226C15.155 1.77082 13.0277 0.00460912 10.4872 0H0V4.10488H9.71127C10.5836 4.10488 11.2906 4.79118 11.2906 5.63788C11.2906 6.48457 10.5836 7.17087 9.71127 7.17087H4.41663V5.02717L0 7.17087V17.8511H10.8125C13.3216 17.8511 15.4428 16.2149 16.1066 13.9845C16.2467 13.5135 16.3236 13.0171 16.3236 12.5027C16.3236 10.978 15.5392 9.49986 14.2784 8.44714H14.2779ZM9.88411 13.7771H4.41663V10.4599H9.88411C10.8277 10.4599 11.5931 11.2025 11.5931 12.1188C11.5931 13.0351 10.8281 13.7776 9.88411 13.7776V13.7771ZM38.0055 4.87507H42L37.4784 17.8507H33.1045L28.5312 4.87507H32.728L35.3667 13.4056L38.0055 4.87507ZM27.8256 17.865L27.7543 17.8765C27.2472 17.9585 26.5302 18 25.6237 18C22.6601 18 21.322 17.0413 21.322 14.7948V7.57232H19.1694V4.87507H21.322V3.0222L25.297 1.09282V4.87507H27.826V7.57232H25.297V13.6172C25.297 14.6893 25.5201 14.9059 26.6247 14.9059C27.0753 14.9059 27.4319 14.875 27.6836 14.8137L27.826 14.7791V17.8645L27.8256 17.865Z" fill="black"/>
</svg>
